<svg viewBox="0 0 22 22" fill="none" xmlns="http://www.w3.org/2000/svg">
  <rect width="22" height="22" rx="6" fill="black"/>
  <path d="M14.7285 8.01382C14.1285 7.42321 13.364 7.021 12.5317 6.85805C11.6995 6.6951 10.8368 6.77873 10.0529 7.09837C9.26888 7.41801 8.59881 7.95929 8.12737 8.65377C7.65594 9.34826 7.40431 10.1648 7.40431 11C7.40431 11.8352 7.65594 12.6517 8.12737 13.3462C8.59881 14.0407 9.26888 14.582 10.0529 14.9016C10.8368 15.2213 11.6995 15.3049 12.5317 15.1419C13.364 14.979 14.1285 14.5768 14.7285 13.9862L13.515 12.7917C13.155 13.1461 12.6963 13.3874 12.1969 13.4852C11.6976 13.5829 11.18 13.5328 10.7096 13.341C10.2392 13.1492 9.83718 12.8244 9.55431 12.4077C9.27145 11.991 9.12047 11.5011 9.12047 11C9.12047 10.4989 9.27145 10.009 9.55431 9.59226C9.83718 9.17557 10.2392 8.8508 10.7096 8.65902C11.18 8.46724 11.6976 8.41706 12.1969 8.51483C12.6963 8.6126 13.155 8.85393 13.515 9.20829L14.7285 8.01382Z" fill="white"/>
  <path d="M16.2499 6.51625C15.349 5.62945 14.2011 5.02553 12.9515 4.78086C11.7018 4.5362 10.4066 4.66177 9.22943 5.1417C8.0523 5.62163 7.04618 6.43437 6.33832 7.47714C5.63046 8.51991 5.25264 9.74587 5.25264 11C5.25264 12.2541 5.63046 13.4801 6.33832 14.5229C7.04618 15.5656 8.0523 16.3784 9.22943 16.8583C10.4066 17.3382 11.7018 17.4638 12.9515 17.2191C14.2011 16.9745 15.349 16.3705 16.2499 15.4837L15.3389 14.587C14.6181 15.2964 13.6998 15.7796 12.7001 15.9753C11.7004 16.171 10.6642 16.0706 9.72248 15.6866C8.78078 15.3027 7.97589 14.6525 7.4096 13.8183C6.84331 12.9841 6.54105 12.0033 6.54105 11C6.54105 9.9967 6.84331 9.01593 7.4096 8.18171C7.97589 7.3475 8.78078 6.69731 9.72248 6.31336C10.6642 5.92941 11.7004 5.82896 12.7001 6.02469C13.6998 6.22042 14.6181 6.70356 15.3389 7.413L16.2499 6.51625Z" fill="white"/>
  <path d="M10.9836 4H12.4059V4.7H10.9836V4Z" fill="white"/>
  <path d="M10.9836 17.3H12.4059V18H10.9836V17.3Z" fill="white"/>
  <path d="M14.6347 4.58781L15.8665 5.28781L15.5109 5.89402L14.2791 5.19402L14.6347 4.58781Z" fill="white"/>
  <path d="M7.8787 16.106L9.11046 16.806L8.75488 17.4122L7.52312 16.7122L7.8787 16.106Z" fill="white"/>
  <path d="M7.52312 5.28781L8.75488 4.58781L9.11046 5.19402L7.8787 5.89402L7.52312 5.28781Z" fill="white"/>
  <path d="M14.2791 16.806L15.5109 16.106L15.8665 16.7122L14.6347 17.4122L14.2791 16.806Z" fill="white"/>
  <path d="M5.18043 8.10622L5.89159 6.89378L6.50747 7.24378L5.79631 8.45622L5.18043 8.10622Z" fill="white"/>
  <path d="M4.58325 11.7L4.58325 10.3H5.29441L5.29441 11.7H4.58325Z" fill="white"/>
  <path d="M5.89159 15.1062L5.18043 13.8938L5.79631 13.5438L6.50747 14.7562L5.89159 15.1062Z" fill="white"/>
  </svg>
  